<?xml version="1.0" encoding="utf-8"?><svg version="1.1" id="Layer_1" xmlns="http://www.w3.org/2000/svg" xmlns:xlink="http://www.w3.org/1999/xlink" x="0px" y="0px" viewBox="0 0 122.88 70.51" style="enable-background:new 0 0 122.88 70.51" xml:space="preserve"><style type="text/css">.st0{fill-rule:evenodd;clip-rule:evenodd;}</style><g><path class="st0" d="M2.54,65.44h12.59c-0.93-0.24-1.63-1.1-1.63-2.1V2.17C13.5,0.98,14.48,0,15.67,0h90.97 c1.2,0,2.17,0.98,2.17,2.17v61.16c0,1.01-0.69,1.86-1.63,2.1h13.16c1.4,0,2.54,1.14,2.54,2.54v0c0,1.4-1.14,2.54-2.54,2.54H2.54 c-1.4,0-2.54-1.14-2.54-2.54v0C0,66.58,1.14,65.44,2.54,65.44L2.54,65.44z M48.68,50.12c-1.65,1.25-3.5,2.24-6.21,1.21 c-1.76-0.67-3.21-2.21-4.01-4.16c7.02,3.18,9.53-5.95,1.22-6.22c2.54-3.05,6.28-3.03,9.3-0.79c1.43,1.06,2.23,1.59,3.05,1.82 c0.45,0.13,0.9,0.16,1.47,0.16c1.93,0.01,12.05-0.21,14.1-0.26c3.86-0.08,5.81-6.01,11.29-3.92c1.76,0.67,3.21,2.21,4.01,4.16 c-7.02-3.18-9.53,5.95-1.22,6.22c-2.54,3.05-6.28,3.03-9.3,0.79c-1.32-0.99-2.16-2.14-4.77-2.07c-1.81,0.08-11.91,0.2-13.73,0.32 c-0.72,0.04-1.2,0.11-1.66,0.29c-0.82,0.31-1.57,0.96-3.52,2.44L48.68,50.12L48.68,50.12z M74.79,21.73 c-0.1-0.1-0.18-0.16-0.28-0.2c-0.08-0.04-0.18-0.06-0.3-0.06c-0.12,0-0.22,0.02-0.3,0.06c-0.08,0.04-0.18,0.1-0.26,0.18l-0.02,0.02 l-2.26,2.26c-0.44,0.44-1.14,0.5-1.64,0.14c-0.26-0.16-0.52-0.32-0.82-0.48c-0.32-0.16-0.62-0.32-0.9-0.46 c-0.3-0.14-0.62-0.28-0.94-0.4c-0.28-0.1-0.6-0.22-0.98-0.34c-0.54-0.18-0.88-0.68-0.88-1.22v-3.47c0-0.12-0.02-0.24-0.06-0.32 c-0.04-0.08-0.1-0.18-0.18-0.24c-0.08-0.08-0.16-0.14-0.24-0.18c-0.08-0.04-0.2-0.06-0.32-0.06h-4.37c-0.12,0-0.22,0.02-0.3,0.04 c-0.08,0.04-0.18,0.1-0.28,0.2c-0.08,0.08-0.14,0.16-0.16,0.24c-0.04,0.08-0.06,0.2-0.06,0.32v3.19c0,0.64-0.46,1.16-1.06,1.28 c-0.34,0.08-0.66,0.16-0.94,0.24c-0.32,0.1-0.62,0.2-0.94,0.32c-0.3,0.12-0.62,0.24-0.92,0.4c-0.32,0.14-0.6,0.3-0.88,0.44 c-0.52,0.28-1.12,0.18-1.52-0.22l-2.5-2.48c-0.02-0.02-0.02-0.02-0.02-0.04c-0.08-0.08-0.16-0.14-0.24-0.18 c-0.08-0.04-0.16-0.04-0.28-0.04c-0.12,0-0.22,0.02-0.3,0.06c-0.1,0.04-0.18,0.1-0.28,0.2l-3.04,3.07c-0.1,0.1-0.16,0.18-0.2,0.28 c-0.04,0.08-0.06,0.18-0.06,0.3s0.02,0.22,0.06,0.3c0.04,0.08,0.1,0.18,0.18,0.26v0.02l2.26,2.26c0.44,0.44,0.5,1.14,0.14,1.64 c-0.16,0.26-0.32,0.52-0.48,0.82c-0.16,0.32-0.32,0.62-0.46,0.9c-0.14,0.3-0.28,0.62-0.4,0.94c-0.1,0.28-0.22,0.6-0.34,0.98 c-0.18,0.54-0.68,0.88-1.22,0.88H42.3c-0.12,0-0.24,0.02-0.32,0.06c-0.08,0.04-0.16,0.1-0.24,0.16c-0.08,0.08-0.14,0.16-0.16,0.24 c-0.04,0.08-0.06,0.2-0.06,0.32v0.35c-0.88,0.27-1.73,0.66-2.54,1.19v-1.58c0-0.46,0.08-0.88,0.24-1.3c0.16-0.4,0.42-0.76,0.74-1.1 c0.32-0.32,0.7-0.58,1.1-0.74c0.4-0.16,0.84-0.24,1.3-0.24h2.56c0.02-0.06,0.06-0.14,0.08-0.2c0.14-0.36,0.3-0.72,0.46-1.08 c0.18-0.38,0.34-0.74,0.52-1.06l0.06-0.12l-1.54-1.56c-0.32-0.32-0.58-0.68-0.74-1.1c-0.18-0.42-0.26-0.86-0.26-1.3 c0-0.46,0.08-0.88,0.26-1.3c0.18-0.42,0.42-0.78,0.74-1.1l3.04-3.07v-0.02c0.32-0.32,0.68-0.56,1.08-0.74 c0.42-0.18,0.84-0.26,1.3-0.26c0.46,0,0.9,0.1,1.3,0.26c0.4,0.18,0.76,0.42,1.06,0.76l1.82,1.8c0.06-0.02,0.12-0.06,0.16-0.08 c0.34-0.16,0.7-0.3,1.08-0.46c0.36-0.14,0.74-0.26,1.12-0.38c0.06-0.02,0.1-0.04,0.16-0.04V17.7c0-0.46,0.08-0.9,0.26-1.3 c0.16-0.4,0.42-0.76,0.74-1.08l0.02-0.02c0.32-0.32,0.68-0.56,1.08-0.72c0.4-0.16,0.84-0.26,1.28-0.26h4.37 c0.46,0,0.88,0.08,1.3,0.24c0.42,0.16,0.78,0.42,1.1,0.74c0.32,0.32,0.58,0.7,0.74,1.1c0.16,0.4,0.24,0.84,0.24,1.3v2.56 c0.06,0.02,0.14,0.06,0.2,0.08c0.36,0.14,0.72,0.3,1.08,0.46c0.38,0.18,0.74,0.34,1.06,0.52l0.12,0.06l1.56-1.54 c0.32-0.32,0.68-0.58,1.1-0.74c0.42-0.18,0.86-0.26,1.3-0.26c0.46,0,0.88,0.08,1.3,0.26v0.04c0.42,0.18,0.78,0.42,1.1,0.74 l3.07,3.04h0.02c0.32,0.32,0.56,0.68,0.74,1.08c0.18,0.42,0.26,0.84,0.26,1.3c0,0.46-0.1,0.9-0.26,1.3 c-0.18,0.4-0.42,0.76-0.76,1.06l-1.8,1.82c0.02,0.06,0.06,0.12,0.08,0.18c0.16,0.34,0.3,0.7,0.44,1.04c0,0.02,0.02,0.04,0.02,0.06 c0.14,0.34,0.26,0.72,0.38,1.12l0.04,0.14h2.2c0.46,0,0.9,0.08,1.3,0.26c0.4,0.16,0.76,0.42,1.08,0.74l0.02,0.02 c0.32,0.32,0.56,0.68,0.72,1.08c0.16,0.4,0.26,0.84,0.26,1.28v0.65H83.8c-0.92-0.84-1.97-1.53-3.11-2 c-0.09-0.04-0.18-0.08-0.27-0.11c-1.5-0.57-2.82-0.81-4-0.82c-0.04-0.15-0.08-0.31-0.12-0.46c-0.1-0.3-0.2-0.62-0.34-0.96 c0-0.02-0.02-0.04-0.02-0.06c-0.12-0.32-0.24-0.6-0.36-0.88c-0.14-0.3-0.28-0.6-0.44-0.88c-0.28-0.52-0.18-1.12,0.22-1.52l2.48-2.5 c0-0.02,0.02-0.02,0.04-0.02c0.08-0.08,0.14-0.16,0.18-0.24c0.04-0.08,0.04-0.16,0.04-0.28c0-0.12-0.02-0.22-0.06-0.3 c-0.04-0.1-0.1-0.18-0.2-0.28l-3.07-3.05L74.79,21.73L74.79,21.73z M61.67,27.26c0.66,0,1.32,0.06,1.96,0.2 c0.62,0.12,1.24,0.32,1.86,0.58c0.58,0.26,1.14,0.56,1.66,0.9c0.52,0.34,1,0.74,1.44,1.18c0.44,0.44,0.84,0.92,1.18,1.46 c0.36,0.52,0.66,1.08,0.9,1.66c0.02,0.04,0.02,0.08,0.04,0.1c0.21,0.5,0.37,1.02,0.49,1.52c-0.57,0.38-1.12,0.8-1.66,1.22h-0.7 c-0.02-0.15-0.05-0.3-0.08-0.45c-0.1-0.46-0.22-0.88-0.38-1.28c-0.02-0.02-0.02-0.04-0.04-0.08c-0.2-0.46-0.42-0.88-0.68-1.26 c-0.26-0.38-0.54-0.74-0.86-1.06c-0.32-0.32-0.68-0.62-1.06-0.86c-0.38-0.26-0.8-0.48-1.26-0.68c-0.42-0.18-0.88-0.32-1.36-0.42 c-0.46-0.1-0.96-0.14-1.46-0.14c-0.5,0-0.98,0.04-1.46,0.14c-0.46,0.1-0.88,0.22-1.28,0.38c-0.02,0.02-0.04,0.02-0.08,0.04 c-0.46,0.2-0.88,0.42-1.26,0.68c-0.38,0.26-0.74,0.54-1.06,0.86c-0.32,0.32-0.62,0.68-0.86,1.06c-0.26,0.38-0.48,0.8-0.68,1.26 c-0.18,0.42-0.32,0.88-0.42,1.36c-0.03,0.15-0.06,0.3-0.08,0.45H51.9c0.03-0.33,0.08-0.65,0.15-0.97c0.12-0.62,0.32-1.24,0.58-1.86 c0.26-0.58,0.56-1.14,0.9-1.66c0.34-0.52,0.74-1,1.18-1.46c0.44-0.44,0.92-0.84,1.44-1.18c0.52-0.36,1.08-0.66,1.66-0.9 c0.04-0.02,0.08-0.02,0.1-0.04c0.58-0.24,1.18-0.42,1.76-0.54c0.64-0.12,1.3-0.2,1.96-0.2H61.67L61.67,27.26z M17.21,3.4h88.19 v59.32H17.21V3.4L17.21,3.4z M57.87,66.39h7.14c0.67,0,1.22,0.55,1.22,1.22l0,0c0,0.67-0.55,1.22-1.22,1.22h-7.14 c-0.67,0-1.22-0.55-1.22-1.22l0,0C56.65,66.93,57.2,66.39,57.87,66.39L57.87,66.39z"/></g></svg>